<svg xmlns="http://www.w3.org/2000/svg" xmlns:xlink="http://www.w3.org/1999/xlink" id="body_22" preserveAspectRatio="xMinYMin meet" viewBox="0 0 793 1121"><defs><clipPath id="1"><path clip-rule="evenodd" d="M0 841L0 -0.9199829L0 -0.9199829L595.32 -0.9199829L595.32 -0.9199829L595.32 841L595.32 841L0 841z" /></clipPath><clipPath id="2"><path clip-rule="evenodd" d="M-15.12 86.67999L598.2 86.67999L598.2 86.67999L598.2 71.08002L598.2 71.08002L-15.12 71.08002z" /></clipPath><clipPath id="3"><path clip-rule="evenodd" d="M-5.4 86.67999L143.06 86.67999L143.06 86.67999L143.06 71.08002L143.06 71.08002L-5.4 71.08002z" /></clipPath><clipPath id="4"><path clip-rule="evenodd" d="M-5.4 86.67999L143.06 86.67999L143.06 86.67999L143.06 71.08002L143.06 71.08002L-5.4 71.08002z" /></clipPath><clipPath id="5"><path clip-rule="evenodd" d="M-5.4 86.67999L143.06 86.67999L143.06 86.67999L143.06 71.08002L143.06 71.08002L-5.4 71.08002z" /></clipPath><clipPath id="6"><path clip-rule="evenodd" d="M143.06 86.67999L291.52 86.67999L291.52 86.67999L291.52 71.08002L291.52 71.08002L143.06 71.08002z" /></clipPath><clipPath id="7"><path clip-rule="evenodd" d="M143.06 86.67999L291.52 86.67999L291.52 86.67999L291.52 71.08002L291.52 71.08002L143.06 71.08002z" /></clipPath><clipPath id="8"><path clip-rule="evenodd" d="M143.06 86.67999L291.52 86.67999L291.52 86.67999L291.52 71.08002L291.52 71.08002L143.06 71.08002z" /></clipPath><clipPath id="9"><path clip-rule="evenodd" d="M291.53 86.67999L439.87 86.67999L439.87 86.67999L439.87 71.08002L439.87 71.08002L291.53 71.08002z" /></clipPath><clipPath id="10"><path clip-rule="evenodd" d="M291.53 86.67999L439.87 86.67999L439.87 86.67999L439.87 71.08002L439.87 71.08002L291.53 71.08002z" /></clipPath><clipPath id="11"><path clip-rule="evenodd" d="M291.53 86.67999L439.87 86.67999L439.87 86.67999L439.87 71.08002L439.87 71.08002L291.53 71.08002z" /></clipPath><clipPath id="12"><path clip-rule="evenodd" d="M439.87 86.67999L588.48 86.67999L588.48 86.67999L588.48 71.08002L588.48 71.08002L439.87 71.08002z" /></clipPath><clipPath id="13"><path clip-rule="evenodd" d="M439.87 86.67999L588.48 86.67999L588.48 86.67999L588.48 71.08002L588.48 71.08002L439.87 71.08002z" /></clipPath><clipPath id="14"><path clip-rule="evenodd" d="M439.87 86.67999L588.48 86.67999L588.48 86.67999L588.48 71.08002L588.48 71.08002L439.87 71.08002z" /></clipPath></defs><g transform="matrix(1.333333 0 0 1.333333 0 0)"><g clip-path="url(#1)"><g clip-path="url(#2)"><path transform="matrix(1 0 0 -1 0 841)" d="M137.66 754.32L143.06 754.32L143.06 754.32L143.06 769.92L143.06 769.92L137.66 769.92z" stroke="none" fill="#FFFFFF" fill-rule="evenodd" /><g clip-path="url(#3)"><path transform="matrix(1 0 0 -1 0 841)" d="M0 754.32L137.66 754.32L137.66 754.32L137.66 769.92L137.66 769.92L0 769.92z" stroke="none" fill="#FFFFFF" fill-rule="evenodd" /><g clip-path="url(#4)"></g><g clip-path="url(#5)"></g></g><path transform="matrix(1 0 0 -1 0 841)" d="M143.06 754.32L148.46 754.32L148.46 754.32L148.46 769.92L148.46 769.92L143.06 769.92z" stroke="none" fill="#FBE4D5" fill-rule="evenodd" /><path transform="matrix(1 0 0 -1 0 841)" d="M286.13 754.32L291.53 754.32L291.53 754.32L291.53 769.92L291.53 769.92L286.13 769.92z" stroke="none" fill="#FBE4D5" fill-rule="evenodd" /><g clip-path="url(#6)"><path transform="matrix(1 0 0 -1 0 841)" d="M148.46 754.32L286.12 754.32L286.12 754.32L286.12 769.92L286.12 769.92L148.46 769.92z" stroke="none" fill="#FBE4D5" fill-rule="evenodd" /><g clip-path="url(#7)"></g><g clip-path="url(#8)"></g></g><path transform="matrix(1 0 0 -1 0 841)" d="M291.53 754.32L296.93 754.32L296.93 754.32L296.93 769.92L296.93 769.92L291.53 769.92z" stroke="none" fill="#FFFFFF" fill-rule="evenodd" /><path transform="matrix(1 0 0 -1 0 841)" d="M434.47 754.32L439.87 754.32L439.87 754.32L439.87 769.92L439.87 769.92L434.47 769.92z" stroke="none" fill="#FFFFFF" fill-rule="evenodd" /><g clip-path="url(#9)"><path transform="matrix(1 0 0 -1 0 841)" d="M296.93 754.32L434.47 754.32L434.47 754.32L434.47 769.92L434.47 769.92L296.93 769.92z" stroke="none" fill="#FFFFFF" fill-rule="evenodd" /><g clip-path="url(#10)"></g><g clip-path="url(#11)"></g></g><path transform="matrix(1 0 0 -1 0 841)" d="M439.87 754.32L445.294 754.32L445.294 754.32L445.294 769.92L445.294 769.92L439.87 769.92z" stroke="none" fill="#FBE4D5" fill-rule="evenodd" /><path transform="matrix(1 0 0 -1 0 841)" d="M582.96 754.32L588.48 754.32L588.48 754.32L588.48 769.92L588.48 769.92L582.96 769.92z" stroke="none" fill="#FBE4D5" fill-rule="evenodd" /><g clip-path="url(#12)"><path transform="matrix(1 0 0 -1 0 841)" d="M445.3 754.32L582.96 754.32L582.96 754.32L582.96 769.92L582.96 769.92L445.3 769.92z" stroke="none" fill="#FBE4D5" fill-rule="evenodd" /><g clip-path="url(#13)"></g><g clip-path="url(#14)"></g></g></g></g></g></svg>